<svg width="24" height="24" viewBox="0 0 24 24" fill="none" xmlns="http://www.w3.org/2000/svg">
<path d="M3.99993 5.11694C3.99993 4.56466 4.44764 4.11694 4.99993 4.11694H6.99993C7.55221 4.11694 7.99993 4.56466 7.99993 5.11694V6.71694C7.99993 7.26923 8.44764 7.71694 8.99993 7.71694C9.55221 7.71694 9.99993 7.26923 9.99993 6.71694V5.11694C9.99993 3.46009 8.65678 2.11694 6.99993 2.11694H4.99993C3.34307 2.11694 1.99993 3.46009 1.99993 5.11694V9.11694H3.99993V5.11694Z" fill="#2B2F36"/>
<path d="M19.9999 5.11694C19.9999 4.56466 19.5522 4.11694 18.9999 4.11694H16.9999C16.4476 4.11694 15.9999 4.56466 15.9999 5.11694V6.71694C15.9999 7.26923 15.5522 7.71694 14.9999 7.71694C14.4476 7.71694 13.9999 7.26923 13.9999 6.71694V5.11694C13.9999 3.46009 15.3431 2.11694 16.9999 2.11694H18.9999C20.6568 2.11694 21.9999 3.46009 21.9999 5.11694V9.11694H19.9999V5.11694Z" fill="#2B2F36"/>
<path d="M4.99993 20.1169C4.44764 20.1169 3.99993 19.6692 3.99993 19.1169V15.1169H1.99993V19.1169C1.99993 20.7738 3.34307 22.1169 4.99993 22.1169H6.99993C8.65678 22.1169 9.99993 20.7738 9.99993 19.1169V17.5169C9.99993 16.9647 9.55221 16.5169 8.99993 16.5169C8.44764 16.5169 7.99993 16.9647 7.99993 17.5169V19.1169C7.99993 19.6692 7.55221 20.1169 6.99993 20.1169H4.99993Z" fill="#2B2F36"/>
<path d="M19.9999 19.1169C19.9999 19.6692 19.5522 20.1169 18.9999 20.1169H16.9999C16.4476 20.1169 15.9999 19.6692 15.9999 19.1169V17.5169C15.9999 16.9647 15.5522 16.5169 14.9999 16.5169C14.4476 16.5169 13.9999 16.9647 13.9999 17.5169V19.1169C13.9999 20.7738 15.3431 22.1169 16.9999 22.1169H18.9999C20.6568 22.1169 21.9999 20.7738 21.9999 19.1169V15.1169H19.9999V19.1169Z" fill="#2B2F36"/>
<path d="M10.5733 12.437C10.7867 12.277 10.7867 11.957 10.5733 11.797L7.63999 9.59696C7.3763 9.39919 6.99999 9.58734 6.99999 9.91696V11.117H2C1.44771 11.117 1 11.5647 1 12.117C1 12.6693 1.44771 13.117 2 13.117H6.99999V14.317C6.99999 14.6466 7.3763 14.8347 7.63999 14.637L10.5733 12.437Z" fill="#2B2F36"/>
<path d="M13.4265 11.797C13.2132 11.957 13.2132 12.277 13.4265 12.437L16.3599 14.637C16.6236 14.8347 16.9999 14.6466 16.9999 14.317V13.117H21.9999C22.5522 13.117 22.9999 12.6692 22.9999 12.117C22.9999 11.5647 22.5522 11.117 21.9999 11.117H16.9999V9.91696C16.9999 9.58734 16.6236 9.39919 16.3599 9.59696L13.4265 11.797Z" fill="#2B2F36"/>
</svg>
